<svg version="1.1" xmlns="http://www.w3.org/2000/svg" width="512px" height="512px" transform="rotate(0) scale(1, 1)">
<path d="M0 0 C6.58145778 4.92774123 9.80424659 12.53540151 12.1640625 20.15234375 C12.41220703 20.91812744 12.66035156 21.68391113 12.91601562 22.47290039 C14.26276238 26.67215513 15.52077414 30.89218272 16.73046875 35.1328125 C21.31416787 52.74584656 21.31416787 52.74584656 33.2265625 65.81640625 C39.221463 69.07144988 44.6987634 69.51340934 51.2265625 67.90234375 C58.58205001 64.36605168 61.5657184 58.0282036 64.2265625 50.65234375 C65.26098289 47.69685692 66.28346298 44.73741481 67.3046875 41.77734375 C69.93434499 34.76492377 72.85128741 30.02359898 79.2265625 25.90234375 C84.81183367 24.04058669 90.89737135 23.96376048 96.3515625 26.33984375 C115.30716172 37.438595 120.91164074 68.67233465 126.02416992 88.19750977 C135.39968023 125.25456791 140.11940003 163.06267856 141.71875 201.2109375 C141.76121857 202.21435181 141.80368713 203.21776611 141.84744263 204.25158691 C142.05970133 209.31135098 142.26042488 214.3711653 142.44189453 219.43212891 C142.51580665 221.31934158 142.58985681 223.20654885 142.6640625 225.09375 C142.69112274 225.94907822 142.71818298 226.80440643 142.74606323 227.68565369 C143.57623017 247.9239964 157.10249348 260.5490907 171.2265625 273.90234375 C173.17447781 275.62515948 175.13530687 277.33260121 177.09692383 279.03979492 C202.26524947 301.05162071 202.26524947 301.05162071 203.6015625 311.96484375 C203.00210646 318.25913214 200.8456246 323.62729156 195.99609375 327.83984375 C186.58669118 334.2253437 176.31556018 333.87226697 165.34375 332.37109375 C155.12463341 330.30481083 146.51001932 327.18540902 138.0390625 321.07421875 C136.306365 319.72136006 136.306365 319.72136006 134.2265625 319.90234375 C133.58025116 321.96469401 132.93457593 324.0272436 132.2890625 326.08984375 C132.07088867 326.7854541 131.85271484 327.48106445 131.62792969 328.19775391 C130.13640377 332.96240635 128.66509462 337.73280834 127.20703125 342.5078125 C96.27266221 443.56791559 96.27266221 443.56791559 75.4375 456.84375 C69.24419576 459.80909532 62.20973225 459.67758316 55.7265625 457.77734375 C46.48833362 454.32692092 41.50957999 448.62453041 37.2265625 439.90234375 C35.70984264 436.49664973 34.2318024 433.07433058 32.84936523 429.61181641 C30.04030885 422.79764366 26.41365926 417.79112537 19.48999023 414.79174805 C12.06402103 411.87374505 4.56391107 411.54619818 -3.3359375 411.58984375 C-4.38789307 411.5947583 -5.43984863 411.59967285 -6.52368164 411.60473633 C-18.28170965 411.77993427 -31.16551453 412.33570364 -40.7734375 419.90234375 C-46.33977623 425.95317321 -49.21493125 433.00837484 -52.1640625 440.56835938 C-55.35692911 448.19511555 -59.89263287 452.663418 -67.0234375 456.77734375 C-74.49035215 459.01741814 -83.49908901 460.44820818 -90.7734375 456.90234375 C-100.39840813 450.44300034 -105.36041922 440.39456521 -109.8359375 430.02734375 C-110.3007251 428.95709961 -110.7655127 427.88685547 -111.24438477 426.78417969 C-146.7734375 343.59477653 -146.7734375 343.59477653 -146.7734375 318.90234375 C-148.2275 319.73765625 -148.2275 319.73765625 -149.7109375 320.58984375 C-150.67773438 321.13705078 -150.67773438 321.13705078 -151.6640625 321.6953125 C-153.05920994 322.49364687 -154.44498765 323.30860596 -155.8203125 324.140625 C-169.9007575 332.43986539 -185.66103827 334.61192532 -201.7734375 332.90234375 C-208.14085504 331.06335216 -211.64542955 327.78705167 -214.8984375 322.08984375 C-216.90053445 317.29629263 -218.02100993 313.02823916 -216.7734375 307.90234375 C-212.45212779 298.56116674 -203.87036965 291.62099843 -196.203125 285.046875 C-192.14532756 281.46531424 -188.22484132 277.73587914 -184.28076172 274.0300293 C-181.00144838 270.95613616 -177.7030396 267.9344674 -174.2734375 265.02734375 C-170.36403371 261.66185701 -167.06153342 257.86641879 -163.7734375 253.90234375 C-162.9896875 252.97421875 -162.2059375 252.04609375 -161.3984375 251.08984375 C-158.79775149 247.58892028 -158.62811932 244.67705931 -158.52392578 240.44165039 C-158.49350693 239.31548309 -158.46308807 238.1893158 -158.43174744 237.02902222 C-158.40270828 235.80256989 -158.37366913 234.57611755 -158.34375 233.3125 C-158.29069856 231.36006216 -158.23762775 229.40762472 -158.1836729 227.45521164 C-158.12662138 225.38198303 -158.0711661 223.30871512 -158.01571655 221.23544312 C-156.3034698 158.09904465 -150.84889865 94.82393996 -124.9609375 36.33984375 C-124.62457275 35.57945801 -124.28820801 34.81907227 -123.94165039 34.03564453 C-120.57338954 26.83873083 -116.16168498 19.37916609 -108.7734375 15.90234375 C-105.63463448 15.31799212 -102.86206049 15.03752931 -99.7734375 15.90234375 C-94.38974795 20.16269777 -92.39192888 25.61270267 -89.8125 31.75195312 C-87.47614614 37.05547639 -85.10867026 40.23472737 -79.7734375 42.90234375 C-74.25780134 43.51743297 -69.14106598 43.58336037 -64.47045898 40.31591797 C-58.24865507 35.13331911 -55.08608895 27.7019547 -51.8984375 20.46484375 C-46.4775602 8.71147015 -41.28196106 0.66749558 -28.7734375 -4.09765625 C-18.9004465 -7.22074524 -8.63823893 -5.34657519 0 0 Z M-114.5859375 199.08984375 C-119.89359697 206.43416325 -123.05823841 214.79770519 -121.7734375 223.90234375 C-119.841966 233.83106499 -115.58959263 242.10794141 -107.5234375 248.33984375 C-99.40439681 253.79293078 -91.04506057 256.32119703 -81.37109375 254.43359375 C-72.48395087 252.13306986 -65.29184587 247.72844371 -60.0546875 240.10546875 C-54.61370731 230.74963696 -52.8033658 222.23542952 -54.9765625 211.6484375 C-56.23985771 207.29502314 -58.28461782 203.66611093 -60.7734375 199.90234375 C-61.3509375 199.01546875 -61.9284375 198.12859375 -62.5234375 197.21484375 C-69.31143041 190.23829549 -77.99302679 185.99963722 -87.7734375 185.52734375 C-98.48307807 186.04450949 -107.73733025 190.94437258 -114.5859375 199.08984375 Z M45.2890625 196.82421875 C38.29311246 204.34486504 35.86411302 212.01074913 36.015625 222.22265625 C36.79205697 232.08621795 41.31747887 240.57934291 48.6015625 247.21484375 C53.41879601 251.05157841 59.01383668 254.31065558 65.2265625 254.90234375 C65.92136719 254.97710937 66.61617188 255.051875 67.33203125 255.12890625 C76.41527907 255.67765572 84.554312 252.39030121 91.6015625 246.71484375 C98.99161123 239.64810965 103.1407119 230.83426159 103.6015625 220.65234375 C103.4252838 211.49844255 99.88710687 202.72213223 93.51171875 196.12890625 C86.65558112 189.69364044 79.56423311 186.33740233 70.125 185.80859375 C59.76057993 186.14383106 52.51881984 189.6527659 45.2890625 196.82421875 Z M-31.5234375 262.08984375 C-32.99225124 263.85266712 -32.99225124 263.85266712 -32.7734375 266.21484375 C-30.07533891 273.46598371 -24.88654582 276.58203061 -18.1015625 279.765625 C-10.89461269 282.22715363 -2.65137973 282.14303361 4.37890625 279.0234375 C9.13743855 276.13612509 13.14508572 272.52455892 16.2265625 267.90234375 C16.55999801 265.36026404 16.55999801 265.36026404 16.2265625 262.90234375 C14.43251793 260.65016595 14.43251793 260.65016595 11.9765625 260.83984375 C8.97916582 261.99792883 8.29141711 262.82399822 6.3515625 265.27734375 C3.01300697 269.424988 -0.3682828 271.42454536 -5.75 272.1796875 C-10.69318309 272.41825811 -14.38946874 271.30111911 -18.7734375 268.90234375 C-21.1544395 266.73779647 -23.25464035 264.48100211 -25.3984375 262.08984375 C-27.60140101 260.18728435 -29.21412573 260.52281076 -31.5234375 262.08984375 Z " fill="#e2ac08" transform="translate(259.7734375,39.09765625)"/>
<path d="M0 0 C3.37085331 2.80904443 5.79380408 4.93128032 6.23828125 9.390625 C6.39519616 15.43597829 6.30488732 19.33637207 2 24 C-2.66774692 26.9363267 -7.67314216 26.48353918 -13 26 C-16.84600836 24.69072056 -18.36456928 22.77310176 -20.375 19.375 C-22.44655755 14.78375204 -22.56464191 10.78542525 -21 6 C-15.5581019 -1.36256801 -8.31616727 -3.48842971 0 0 Z " fill="#e2ac08" transform="translate(332,14)"/>
</svg>